# AST/ASF file generated using VICON BodyLanguage
# -----------------------------------------------
:version 1.10
:name VICON
:units
  mass 1.0
  length 0.45
  angle deg
:documentation
   .ast/.asf automatically generated from VICON data using
   VICON BodyBuilder and BodyLanguage model FoxedUp or BRILLIANT.MOD
:root
   order TX TY TZ RX RY RZ
   axis XYZ
   position 0 0 0  
   orientation 0 0 0 
:bonedata
  begin
     id 1 
     name lhipjoint
     direction 0.576517 -0.752066 0.319413 
     length 2.45433 
     axis 0 0 0  XYZ
  end
  begin
     id 2 
     name lfemur
     direction 0.34202 -0.939693 0  
     length 7.54459  
     axis 0 0 20  XYZ
    dof rx ry rz
    limits (-160.0 20.0)
           (-70.0 70.0)
           (-60.0 70.0)
  end
  begin
     id 3 
     name ltibia
     direction 0.34202 -0.939693 0   
     length 7.73986   
     axis 0 0 20   XYZ
    dof rx
    limits (-10.0 170.0)
  end
  begin
     id 4 
     name lfoot
     direction 0.090693 -0.249177 0.964202   
     length 2.28437   
     axis -90 7.62852e-016 20   XYZ
    dof rx rz
    limits (-45.0 90.0)
           (-70.0 20.0)
  end
  begin
     id 5 
     name ltoes
     direction 1.5356e-011 -4.21928e-011 1   
     length 1.14243   
     axis -90 7.62852e-016 20   XYZ
    dof rx
    limits (-90.0 20.0)
  end
  begin
     id 6 
     name rhipjoint
     direction -0.573937 -0.753736 0.320122   
     length 2.44889  
     axis 0 0 0  XYZ 
  end
  begin
     id 7 
     name rfemur
     direction -0.34202 -0.939693 0   
     length 7.50166   
     axis 0 0 -20   XYZ
    dof rx ry rz
    limits (-160.0 20.0)
           (-70.0 70.0)
           (-70.0 60.0)
  end
  begin
     id 8 
     name rtibia
     direction -0.34202 -0.939693 0   
     length 7.54266   
     axis 0 0 -20   XYZ
    dof rx
    limits (-10.0 170.0)
 end
 begin
     id 9 
     name rfoot
     direction -0.114017 -0.31326 0.942798   
     length 2.34212  
     axis -90 -7.62852e-016 -20   XYZ
    dof rx rz
    limits (-45.0 90.0)
           (-20.0 70.0)
  end
  begin
     id 10 
     name rtoes
     direction -1.53557e-011 -4.21867e-011 1   
     length 1.16246   
     axis -90 -7.62852e-016 -20   XYZ
    dof rx
    limits (-90.0 20.0)
  end
  begin
     id 11 
     name lowerback
     direction -0.0228371 0.999155 -0.034167   
     length 2.0537   
     axis 0 0 0   XYZ
    dof rx ry rz
    limits (-20.0 45.0)
           (-30.0 30.0)
           (-30.0 30.0)
  end
  begin
     id 12 
     name upperback
     direction 0.0198981 0.999794 0.00389455   
     length 2.05302   
     axis 0 0 0   XYZ
    dof rx ry rz
    limits (-20.0 45.0)
           (-30.0 30.0)
           (-30.0 30.0)
  end
  begin
     id 13 
     name thorax
     direction 0.0304566 0.99935 0.0192987   
     length 2.05315   
     axis 0 0 0   XYZ
    dof rx ry rz
    limits (-20.0 45.0)
           (-30.0 30.0)
           (-30.0 30.0)
  end
  begin
     id 14 
     name lowerneck
     direction -0.0196762 0.99417 0.106017   
     length 1.82056   
     axis 0 0 0   XYZ
    dof rx ry rz
    limits (-20.0 45.0)
           (-30.0 30.0)
           (-30.0 30.0)
  end
  begin
     id 15 
     name upperneck
     direction 0.00517787 0.9802 -0.197944   
     length 1.83835   
     axis 0 0 0   XYZ
    dof rx ry rz
    limits (-20.0 45.0)
           (-30.0 30.0)
           (-30.0 30.0)
  end
  begin
     id 16
     name head
     direction 0.00211419 0.996945 -0.078081  
     length 1.85629  
     axis 0 0 0   XYZ
    dof rx ry rz
    limits (-20.0 45.0)
           (-30.0 30.0)
           (-30.0 30.0)
  end
  begin
     id 17 
     name lclavicle
     direction 0.930001 0.365811 -0.0357824  
     length 3.81961  
     axis 0 0 0   XYZ
    dof ry rz
    limits (-20.0 10.0)
           (0.0 20.0)
  end
  begin
     id 18 
     name lhumerus
     direction 1 -4.48968e-011 -3.06644e-027   
     length 5.14507   
     axis 180 -30 -90   XYZ
    dof rx ry rz
    limits (-60.0 90.0)
           (-90.0 90.0)
           (-90.0 90.0)
  end
  begin
     id 19
     name lradius
     direction 1 -4.48965e-011 9.06925e-028   
     length 3.50646   
     axis 180 -30 -90   XYZ
    dof rx
    limits (-10.0 170.0)
  end
  begin
     id 20
     name lwrist
     direction 1 -4.48957e-011 1.03922e-027   
     length 1.75323   
     axis -2.56395e-016 90 90   XYZ
    dof ry
    limits (-180.0 0.0)
 end
  begin
     id 21 
     name lhand
     direction 1 -4.48967e-011 2.08017e-027   
     length 0.629969   
     axis -1.32723e-015 90 90   XYZ
    dof rx rz
    limits (-90.0 90.0)
           (-45.0 45.0)
  end
  begin
     id 22 
     name lfingers
     direction 1 -4.49089e-011 4.20095e-027   
     length 0.507897   
     axis -2.6545e-015 90 90   XYZ
    dof rx
    limits (0.0 90.0)
  end
  begin
     id 23
     name lthumb
     direction 0.707107 -6.35001e-011 0.707107   
     length 0.729241   
     axis -90 45 5.05613e-014   XYZ
    dof rx rz
    limits (-45.0 45.0)
           (-45.0 45.0)
  end
  begin
     id 24 
     name rclavicle
     direction -0.881882 0.464123 -0.0829113   
     length 3.47515  
     axis 0 0 0   XYZ 
    dof ry rz
    limits (-10.0 20.0)
           (-20.0 0.0)
  end
  begin
     id 25 
     name rhumerus
     direction -1 -4.48961e-011 -1.55672e-027  
     length 5.232   
     axis 180 30 90   XYZ
    dof rx ry rz
    limits (-90.0 60.0)
           (-90.0 90.0)
           (-90.0 90.0)
  end
  begin
     id 26 
     name rradius
     direction -1 -4.48963e-011 6.18178e-029   
     length 3.65641   
     axis 180 30 90   XYZ
    dof rx
    limits (-10.0 170.0)
  end
  begin
     id 27 
     name rwrist
     direction -1 -4.48982e-011 1.04136e-027   
     length 1.8282   
     axis -2.56395e-016 -90 -90   XYZ
    dof ry
    limits (-180.0 0.0)
  end
  begin
     id 28
     name rhand
     direction -1 -4.48929e-011 2.07378e-027   
     length 0.656807   
     axis -1.32723e-015 -90 -90   XYZ
    dof rx rz
    limits (-90.0 90.0)
           (-45.0 45.0)
  end
  begin
     id 29
     name rfingers
     direction -1 -4.489e-011 4.13816e-027   
     length 0.529535   
     axis -2.6545e-015 -90 -90   XYZ
    dof rx
    limits (0.0 90.0)
  end
  begin
     id 30
     name rthumb
     direction -0.707107 -6.34843e-011 0.707107   
     length 0.760309   
     axis -90 -45 -5.05613e-014   XYZ
    dof rx rz
    limits (-45.0 45.0)
           (-45.0 45.0)
  end
:hierarchy
  begin
    root lhipjoint rhipjoint lowerback
    lhipjoint lfemur
    lfemur ltibia
    ltibia lfoot
    lfoot ltoes
    rhipjoint rfemur
    rfemur rtibia
    rtibia rfoot
    rfoot rtoes
    lowerback upperback
    upperback thorax
    thorax lowerneck lclavicle rclavicle
    lowerneck upperneck
    upperneck head
    lclavicle lhumerus
    lhumerus lradius
    lradius lwrist
    lwrist lhand lthumb
    lhand lfingers
    rclavicle rhumerus
    rhumerus rradius
    rradius rwrist
    rwrist rhand rthumb
    rhand rfingers
  end

#!OML:ASF H:\ManfredETheater\Project 1\Capture day 1\Session 1\subject.ASF
:FULLY-SPECIFIED
:DEGREES
46
root 6.63334 14.9546 -13.3653 9.24057 1.31111 19.4815
lowerback 22.8798 -1.61774 -13.8564
upperback 3.30248 -5.99687 -5.43773
thorax -8.28414 -2.49341 3.51279
lowerneck -15.8553 -2.39378 -6.28993
upperneck 6.48847 -2.31909 3.93073
head 4.6236 -1.05211 2.04036
rclavicle 1.98785e-016 -1.0138e-014
rhumerus -67.9163 -5.17415 -79.3835
rradius 78.904
rwrist -15.4361
rhand -31.1594 9.61611
rfingers 7.12502
rthumb -4.43709 -20.3174
lclavicle 1.98785e-016 -1.0138e-014
lhumerus -29.6245 -8.94388 85.6346
lradius 111.603
lwrist 16.5878
lhand -20.7487 -8.75405
lfingers 7.12502
lthumb 5.61702 21.1515
rfemur -66.8601 -16.8609 13.7107
rtibia 91.4566
rfoot -18.3242 -8.31152
rtoes -36.9941
lfemur -22.5987 -3.06219 -15.5183
ltibia 56.5352
lfoot -32.6549 -17.7467
ltoes -31.4052
47
root 6.5314 14.9979 -12.8594 9.04092 0.547072 19.7587
lowerback 22.7329 -1.63708 -13.7915
upperback 3.35303 -5.98842 -5.55898
thorax -8.17139 -2.50502 3.33189
lowerneck -16.0323 -2.23689 -6.15995
upperneck 6.48751 -2.09725 3.67067
head 4.63539 -0.955078 1.9563
rclavicle 3.75703e-014 3.04141e-014
rhumerus -67.6278 -4.93755 -78.6807
rradius 79.2976
rwrist -15.3083
rhand -31.1909 9.37134
rfingers 7.12502
rthumb -4.46749 -20.5615
lclavicle 3.75703e-014 3.04141e-014
lhumerus -29.3734 -7.52283 84.3346
lradius 111.427
lwrist 16.7526
lhand -20.7598 -8.66003
lfingers 7.12502
lthumb 5.60624 21.2458
rfemur -67.5235 -16.0021 13.7423
rtibia 87.8752
rfoot -17.7644 -8.38768
rtoes -36.5562
lfemur -20.3932 -4.06344 -15.756
ltibia 56.1632
lfoot -30.2441 -17.2656
ltoes -33.472
48
root 6.42497 15.0481 -12.3471 8.70804 -0.347209 19.9603
lowerback 22.6087 -1.59707 -13.6593
upperback 3.43672 -5.88835 -5.68882
thorax -8.05419 -2.47692 3.08242
lowerneck -16.1672 -2.08621 -5.99485
upperneck 6.48543 -1.89348 3.40464
head 4.6415 -0.866983 1.86345
rclavicle -1.73937e-015 -7.15625e-015
rhumerus -66.9499 -4.66159 -78.0648
rradius 79.6109
rwrist -15.4699
rhand -31.3301 8.99316
rfingers 7.12502
rthumb -4.60188 -20.9369
lclavicle -1.73937e-015 -7.15625e-015
lhumerus -29.4393 -5.88718 82.8103
lradius 110.784
lwrist 17.0464
lhand -20.7745 -8.47428
lfingers 7.12502
lthumb 5.59205 21.4319
rfemur -67.6714 -15.0913 13.8463
rtibia 84.4644
rfoot -16.9449 -8.53701
rtoes -35.4643
lfemur -18.3083 -5.13986 -16.0367
ltibia 56.021
lfoot -26.8597 -17.0167
ltoes -35.1426
49
root 6.31451 15.1036 -11.8293 8.25567 -1.34512 20.0966
lowerback 22.513 -1.50377 -13.4551
upperback 3.54437 -5.70528 -5.81955
thorax -7.94292 -2.41177 2.77337
lowerneck -16.2599 -1.95067 -5.80844
upperneck 6.49918 -1.71526 3.11652
head 4.64756 -0.792985 1.75827
rclavicle -9.39258e-015 -2.23136e-014
rhumerus -65.9037 -4.35598 -77.514
rradius 79.8467
rwrist -15.754
rhand -31.5144 8.61436
rfingers 7.12502
rthumb -4.77985 -21.3117
lclavicle -9.39258e-015 -2.23136e-014
lhumerus -29.7708 -4.0729 81.0821
lradius 109.572
lwrist 17.4542
lhand -20.7858 -8.24552
lfingers 7.12502
lthumb 5.58115 21.661
rfemur -67.3907 -14.1951 14.0906
rtibia 81.427
rfoot -15.9046 -8.83766
rtoes -33.4468
lfemur -16.4004 -6.2554 -16.3879
ltibia 56.1043
lfoot -22.5226 -16.9088
ltoes -36.2435
50
root 6.2006 15.1637 -11.3074 7.71395 -2.40246 20.2175
lowerback 22.4563 -1.36563 -13.2138
upperback 3.6569 -5.46207 -5.94235
thorax -7.85546 -2.31709 2.43966
lowerneck -16.3148 -1.8375 -5.61295
upperneck 6.54593 -1.56662 2.78144
head 4.65961 -0.737115 1.63451
rclavicle -6.88292e-014 -6.64189e-014
rhumerus -64.5335 -4.01809 -76.9924
rradius 80.0346
rwrist -15.9805
rhand -31.6971 8.31967
rfingers 7.12502
rthumb -4.95622 -21.6024
lclavicle -6.88292e-014 -6.64189e-014
lhumerus -30.3254 -2.11941 79.2001
lradius 107.731
lwrist 17.8781
lhand -20.8118 -8.00203
lfingers 7.12502
lthumb 5.55603 21.9051
rfemur -66.7813 -13.4032 14.4819
rtibia 78.9489
rfoot -14.7722 -9.33679
rtoes -30.4645
lfemur -14.7459 -7.39877 -16.8672
ltibia 56.406
lfoot -17.3306 -16.987
ltoes -36.3055
51
root 6.08338 15.2256 -10.7833 7.12518 -3.49958 20.3546
lowerback 22.4251 -1.18551 -12.9674
upperback 3.75651 -5.16899 -6.0498
thorax -7.79807 -2.19584 2.10835
lowerneck -16.3395 -1.75256 -5.42155
upperneck 6.62909 -1.45134 2.39622
head 4.68011 -0.701797 1.4929
rclavicle 1.58744e-014 3.46654e-014
rhumerus -62.8783 -3.65158 -76.4778
rradius 80.2012
rwrist -16.0006
rhand -31.8541 8.1257
rfingers 7.12502
rthumb -5.10785 -21.7927
lclavicle 1.58744e-014 3.46654e-014
lhumerus -31.0576 -0.084266 77.2087
lradius 105.237
lwrist 18.2194
lhand -20.9297 -7.79855
lfingers 7.12502
lthumb 5.44218 22.1116
rfemur -65.954 -12.752 15.0182
rtibia 77.1701
rfoot -13.7134 -10.0969
rtoes -26.8008
lfemur -13.4174 -8.53576 -17.4919
ltibia 56.9308
lfoot -11.3666 -17.3642
ltoes -34.57
52
root 5.96448 15.2861 -10.2581 6.5154 -4.6147 20.557
lowerback 22.4002 -0.96723 -12.7563
upperback 3.83736 -4.83737 -6.14129
thorax -7.76125 -2.05289 1.80361
lowerneck -16.3428 -1.70027 -5.23893
upperneck 6.73979 -1.37235 1.95191
head 4.70758 -0.689116 1.33108
rclavicle -8.59744e-015 -2.16675e-014
rhumerus -60.9703 -3.2548 -75.9494
rradius 80.3786
rwrist -15.7583
rhand -31.9643 8.04157
rfingers 7.12502
rthumb -5.2143 -21.8743
lclavicle -8.59744e-015 -2.16675e-014
lhumerus -31.9256 1.97627 75.1567
lradius 102.112
lwrist 18.3918
lhand -21.1877 -7.65479
lfingers 7.12502
lthumb 5.19314 22.2616
rfemur -64.973 -12.2903 15.6277
rtibia 76.1562
rfoot -12.9261 -11.0568
rtoes -22.8218
lfemur -12.4422 -9.65588 -18.299
ltibia 57.7025
lfoot -5.22758 -17.9565
ltoes -30.9018
53
root 5.84504 15.3416 -9.73328 5.91612 -5.73058 20.8231
lowerback 22.3593 -0.716795 -12.5918
upperback 3.89366 -4.47255 -6.20132
thorax -7.73686 -1.89084 1.54891
lowerneck -16.3257 -1.68114 -5.07697
upperneck 6.85926 -1.32808 1.45614
head 4.73619 -0.69799 1.15345
rclavicle 1.41137e-014 -2.52457e-014
rhumerus -58.838 -2.81513 -75.3937
rradius 80.6055
rwrist -15.2922
rhand -32.0312 8.0307
rfingers 7.12502
rthumb -5.27881 -21.8836
lclavicle 1.41137e-014 -2.52457e-014
lhumerus -32.8943 4.02428 73.0868
lradius 98.4197
lwrist 18.3842
lhand -21.634 -7.57379
lfingers 7.12502
lthumb 4.76215 22.3527
rfemur -63.8706 -12.0145 16.2475
rtibia 75.867
rfoot -12.5968 -12.1293
rtoes -19.276
lfemur -11.8487 -10.7293 -19.2547
ltibia 58.764
lfoot 0.449499 -18.6102
ltoes -25.2716
54
root 5.72615 15.3894 -9.20983 5.36013 -6.85576 21.1092
lowerback 22.2744 -0.437553 -12.4516
upperback 3.92145 -4.06725 -6.21062
thorax -7.71613 -1.70717 1.35082
lowerneck -16.2907 -1.69072 -4.93187
upperneck 6.96748 -1.31308 0.908068
head 4.75962 -0.725463 0.959655
rclavicle 2.48481e-014 -1.07344e-014
rhumerus -56.4984 -2.31894 -74.8085
rradius 80.9125
rwrist -14.7143
rhand -32.0756 8.04309
rfingers 7.12502
rthumb -5.32172 -21.8701
lclavicle 2.48481e-014 -1.07344e-014
lhumerus -33.9393 6.0309 71.0273
lradius 94.2562
lwrist 18.2732
lhand -22.2677 -7.49852
lfingers 7.12502
lthumb 4.15025 22.4408
rfemur -62.6398 -11.8709 16.836
rtibia 76.1567
rfoot -12.8301 -13.2155
rtoes -16.6084
lfemur -11.6514 -11.7045 -20.2826
ltibia 60.1587
lfoot 5.02594 -19.0594
ltoes -18.4432
55
root 5.60859 15.4283 -8.6889 4.888 -7.99931 21.3556
lowerback 22.1214 -0.138221 -12.2991
upperback 3.91521 -3.61873 -6.15002
thorax -7.69487 -1.5014 1.20964
lowerneck -16.2412 -1.72086 -4.80344
upperneck 7.05078 -1.3177 0.318337
head 4.77364 -0.765809 0.753886
rclavicle 9.24349e-015 -2.78299e-014
rhumerus -53.9642 -1.75415 -74.1954
rradius 81.3244
rwrist -14.1516
rhand -32.1193 8.03384
rfingers 7.12502
rthumb -5.36388 -21.8783
lclavicle 9.24349e-015 -2.78299e-014
lhumerus -35.0528 7.98482 68.991
lradius 89.7496
lwrist 18.1706
lhand -23.0221 -7.38893
lfingers 7.12502
lthumb 3.42178 22.5634
rfemur -61.264 -11.8023 17.3697
rtibia 76.815
rfoot -13.6454 -14.174
rtoes -15.3096
lfemur -11.8724 -12.5153 -21.2783
ltibia 61.9192
lfoot 8.13251 -19.0899
ltoes -11.4651
56
root 5.49215 15.4601 -8.17051 4.51993 -9.18373 21.4814
lowerback 21.8979 0.173728 -12.0829
upperback 3.87519 -3.12301 -6.00266
thorax -7.67486 -1.27253 1.11556
lowerneck -16.1848 -1.75825 -4.67344
upperneck 7.10469 -1.32814 -0.312152
head 4.77746 -0.811466 0.534792
rclavicle 3.20043e-014 -3.81667e-014
rhumerus -51.2398 -1.10504 -73.5738
rradius 81.849
rwrist -13.7106
rhand -32.1838 7.9636
rfingers 7.12502
rthumb -5.42617 -21.9469
lclavicle 3.20043e-014 -3.81667e-014
lhumerus -36.2562 9.89117 66.9662
lradius 85.0525
lwrist 18.1606
lhand -23.7818 -7.21299
lfingers 7.12502
lthumb 2.68809 22.7498
rfemur -59.689 -11.7288 17.8566
rtibia 77.6066
rfoot -14.9816 -14.9275
rtoes -15.5225
lfemur -12.4978 -13.0818 -22.1214
ltibia 64.0448
lfoot 9.71829 -18.5419
ltoes -5.1208
57
root 5.37572 15.4873 -7.65474 4.27786 -10.4367 21.4099
lowerback 21.612 0.492915 -11.7558
upperback 3.79855 -2.57786 -5.75926
thorax -7.66585 -1.01983 1.05287
lowerneck -16.1283 -1.78902 -4.52686
upperneck 7.13668 -1.33012 -0.972709
head 4.77419 -0.854236 0.304602
rclavicle -3.83654e-014 -4.49253e-014
rhumerus -48.3312 -0.364904 -72.9661
rradius 82.4783
rwrist -13.43
rhand -32.2294 7.86953
rfingers 7.12502
rthumb -5.47022 -22.0399
lclavicle -3.83654e-014 -4.49253e-014
lhumerus -37.5859 11.7574 64.9237
lradius 80.3172
lwrist 18.2467
lhand -24.4135 -6.98946
lfingers 7.12502
lthumb 2.07803 22.9802
rfemur -57.8816 -11.579 18.3354
rtibia 78.318
rfoot -16.6858 -15.4482
rtoes -16.8915
lfemur -13.5127 -13.3365 -22.697
ltibia 66.4994
lfoot 10.0611 -17.3668
ltoes 0.331676
58
root 5.25784 15.5127 -7.14177 4.18015 -11.7805 21.1076
lowerback 21.2787 0.815876 -11.3074
upperback 3.68045 -1.9904 -5.42753
thorax -7.68053 -0.746178 1.0093
lowerneck -16.0815 -1.79975 -4.34726
upperneck 7.16458 -1.3103 -1.64708
head 4.77086 -0.886236 0.0668378
rclavicle 9.93923e-015 3.89618e-014
rhumerus -45.2447 0.469189 -72.4088
rradius 83.1922
rwrist -13.2749
rhand -32.2848 7.70949
rfingers 7.12502
rthumb -5.52373 -22.1985
lclavicle 9.93923e-015 3.89618e-014
lhumerus -39.0828 13.5869 62.8169
lradius 75.6821
lwrist 18.3057
lhand -24.8328 -6.72145
lfingers 7.12502
lthumb 1.67305 23.2517
rfemur -55.8442 -11.3076 18.8349
rtibia 78.7889
rfoot -18.5932 -15.7474
rtoes -19.0659
lfemur -14.9145 -13.236 -22.9454
ltibia 69.2183
lfoot 9.66254 -15.6267
ltoes 5.09399
